HIERARCHY
ROOT SpineBase
{
  OFFSET 0.000000 0.000000 0.000000
  CHANNELS 6 Xposition Yposition Zposition Zrotation Xrotation Yrotation
  JOINT SpineMid
  {
    OFFSET 0.000000 35.693714 0.000000
    CHANNELS 3 Zrotation Xrotation Yrotation
    JOINT SpineShoulder
    {
      OFFSET 0.380533 25.949699 -0.906051
      CHANNELS 3 Zrotation Xrotation Yrotation
      JOINT Neck
      {
        OFFSET 0.253214 8.499318 -0.679553
        CHANNELS 3 Zrotation Xrotation Yrotation
        JOINT Head
        {
          OFFSET 1.397936 9.825968 3.618852
          CHANNELS 3 Zrotation Xrotation Yrotation
          End Site
          {
            OFFSET 0 0 0
          }
        }
      }
      JOINT ShoulderLeft
      {
        OFFSET -10.423303 -5.640653 -3.294778
        CHANNELS 3 Zrotation Xrotation Yrotation
        JOINT ElbowLeft
        {
          OFFSET 21.424815 -12.909155 -8.728503
          CHANNELS 3 Zrotation Xrotation Yrotation
          JOINT WristLeft
          {
            OFFSET 7.655984 -24.168865 2.757285
            CHANNELS 3 Zrotation Xrotation Yrotation
            JOINT HandLeft
            {
              OFFSET 0.282665 -7.760960 2.948140
              CHANNELS 3 Zrotation Xrotation Yrotation
              JOINT HandTipLeft
              {
                OFFSET 2.834956 -7.555577 1.933735
                CHANNELS 3 Zrotation Xrotation Yrotation
                End Site
                {
                  OFFSET 0 0 0
                }
              }
              JOINT ThumbLeft
              {
                OFFSET -4.312402 0.303438 -0.289851
                CHANNELS 3 Zrotation Xrotation Yrotation
                End Site
                {
                  OFFSET 0 0 0
                }
              }
            }
          }
        }
      }
      JOINT ShoulderRight
      {
        OFFSET 11.355025 -7.254201 -12.142503
        CHANNELS 3 Zrotation Xrotation Yrotation
        JOINT ElbowRight
        {
          OFFSET 5.704353 -24.808384 0.380751
          CHANNELS 3 Zrotation Xrotation Yrotation
          JOINT WristRight
          {
            OFFSET 2.731643 -23.605573 7.266940
            CHANNELS 3 Zrotation Xrotation Yrotation
            JOINT HandRight
            {
              OFFSET -0.726605 -7.210784 2.079021
              CHANNELS 3 Zrotation Xrotation Yrotation
              JOINT HandTipRight
              {
                OFFSET -0.789901 -6.420292 0.379156
                CHANNELS 3 Zrotation Xrotation Yrotation
                End Site
                {
                  OFFSET 0 0 0
                }
              }
              JOINT ThumbRight
              {
                OFFSET -2.761366 0.429715 -5.307708
                CHANNELS 3 Zrotation Xrotation Yrotation
                End Site
                {
                  OFFSET 0 0 0
                }
              }
            }
          }
        }
      }
    }
  }
  JOINT HipLeft
  {
    OFFSET -4.026081 0.427488 -1.578338
    CHANNELS 3 Zrotation Xrotation Yrotation
    JOINT KneeLeft
    {
      OFFSET -6.402524 -34.166133 2.213612
      CHANNELS 3 Zrotation Xrotation Yrotation
      JOINT AnkleLeft
      {
        OFFSET -3.633112 -33.163179 1.461956
        CHANNELS 3 Zrotation Xrotation Yrotation
        JOINT FootLeft
        {
          OFFSET -2.811637 -3.073822 -12.419013
          CHANNELS 3 Zrotation Xrotation Yrotation
          End Site
          {
            OFFSET 0 0 0
          }
        }
      }
    }
  }
  JOINT HipRight
  {
    OFFSET 6.053919 0.743239 -6.001499
    CHANNELS 3 Zrotation Xrotation Yrotation
    JOINT KneeRight
    {
      OFFSET -1.353134 -34.372887 -1.264289
      CHANNELS 3 Zrotation Xrotation Yrotation
      JOINT AnkleRight
      {
        OFFSET -0.244412 -34.763627 -2.099535
        CHANNELS 3 Zrotation Xrotation Yrotation
        JOINT FootRight
        {
          OFFSET -3.020220 -2.971460 -12.408730
          CHANNELS 3 Zrotation Xrotation Yrotation
          End Site
          {
            OFFSET 0 0 0
          }
        }
      }
    }
  }
}
MOTION
Frames: 9
Frame Time: 0.033333
-56.461695 71.511819 256.505455 -0.000000 0.000000 23.692137 0.000000 0.000000 -23.692137 -0.000000 0.000000 0.000000 -0.000000 0.000000 0.000000 0.000000 0.000000 0.000000 -0.000000 0.000000 0.000000 -0.000000 0.000000 0.000000 -0.000000 0.000000 0.000000 -0.000000 0.000000 0.000000 0.000000 0.000000 0.000000 0.000000 0.000000 0.000000 -0.000000 0.000000 0.000000 -0.000000 0.000000 0.000000 -0.000000 0.000000 0.000000 -0.000000 0.000000 0.000000 0.000000 0.000000 0.000000 0.000000 0.000000 0.000000 0.000000 0.000000 -23.692137 -0.000000 0.000000 0.000000 -0.000000 0.000000 0.000000 0.000000 0.000000 0.000000 0.000000 0.000000 -23.692137 -0.000000 0.000000 0.000000 -0.000000 0.000000 0.000000 0.000000 0.000000 0.000000
-56.450552 71.514933 256.474278 -0.130137 -0.028695 23.942309 0.130584 -0.026586 -23.942312 -0.000000 0.000000 0.000000 -0.000000 0.000000 0.000000 0.000000 0.000000 0.000000 -2.229430 -1.183813 -0.499848 2.068058 0.364390 0.172622 -2.302178 -0.377966 -0.684467 0.968908 1.741386 0.808117 0.000000 0.000000 0.000000 0.000000 0.000000 0.000000 -0.000000 0.000000 0.000000 -0.000000 0.000000 0.000000 -0.147770 -1.023719 0.059074 2.081015 1.451145 -0.042206 0.000000 0.000000 0.000000 0.000000 0.000000 0.000000 0.130584 -0.026586 -23.942312 -0.000000 0.000000 0.000000 -0.000000 0.000000 0.000000 0.000000 0.000000 0.000000 0.130584 -0.026586 -23.942312 -0.000000 0.000000 0.000000 -0.000000 0.000000 0.000000 0.000000 0.000000 0.000000
-56.435336 71.513651 256.443920 -0.246138 -0.054477 24.141277 0.246891 -0.050956 -24.141284 -0.000000 0.000000 0.000000 0.668959 -0.660537 -0.148985 0.000000 0.000000 0.000000 -4.248720 -2.241105 -1.004079 4.054238 0.730023 0.320672 -4.408568 -0.608875 -1.258647 1.696706 3.265982 1.543111 0.000000 0.000000 0.000000 0.000000 0.000000 0.000000 -0.000000 0.000000 0.000000 -0.000000 0.000000 0.000000 -0.275650 -1.948074 0.111583 3.870657 2.782584 -0.161248 0.000000 0.000000 0.000000 0.000000 0.000000 0.000000 1.455414 -0.123791 -24.146239 -2.117296 -1.115148 0.021164 1.271594 0.827481 -1.324388 0.000000 0.000000 0.000000 0.246891 -0.050956 -24.141284 -0.000000 0.000000 0.000000 0.276113 0.135637 -1.287965 0.000000 0.000000 0.000000
-56.416048 71.507972 256.414381 -0.347848 -0.077312 24.290349 0.348857 -0.072624 -24.290362 -0.000000 0.000000 0.000000 0.960098 -0.929176 -0.214522 0.000000 0.000000 0.000000 -6.050365 -3.172527 -1.499101 5.957667 1.100446 0.453104 -6.271470 -0.684889 -1.707160 2.196805 4.537045 2.190303 0.000000 0.000000 0.000000 0.000000 0.000000 0.000000 -0.000000 0.000000 0.000000 -0.000000 0.000000 0.000000 -0.374782 -2.714877 0.155566 5.424302 3.947491 -0.323977 0.000000 0.000000 0.000000 0.000000 0.000000 0.000000 1.983709 -0.181389 -24.294757 -2.869296 -1.516992 0.020502 1.735207 1.135482 -1.849197 0.000000 0.000000 0.000000 0.348857 -0.072624 -24.290362 -0.000000 0.000000 0.000000 0.385350 0.186303 -1.793011 0.000000 0.000000 0.000000
-56.392686 71.497897 256.385661 -0.435135 -0.097173 24.390642 0.436427 -0.091192 -24.390664 -0.000000 0.000000 0.000000 1.222672 -1.156854 -0.274824 0.000000 0.000000 0.000000 -7.629690 -3.980892 -1.973279 7.778484 1.479927 0.578508 -7.853513 -0.602009 -2.020761 2.493068 5.525984 2.733742 0.000000 0.000000 0.000000 0.000000 0.000000 0.000000 0.526232 -0.604373 -0.127971 -0.527609 0.603170 0.133524 -0.436082 -3.262499 0.189063 6.779378 4.896729 -0.498408 0.000000 0.000000 0.000000 0.000000 0.000000 0.000000 2.379994 -0.232636 -24.392977 -3.420072 -1.817060 0.017521 2.086201 1.375705 -2.280929 0.000000 0.000000 0.000000 0.436427 -0.091192 -24.390664 -0.000000 0.000000 0.000000 0.475191 0.226353 -2.206229 0.000000 0.000000 0.000000
-56.365252 71.483426 256.357759 -0.507887 -0.114034 24.443088 0.509552 -0.106346 -24.443121 -0.000000 0.000000 0.000000 1.456912 -1.343681 -0.330366 0.000000 0.000000 0.000000 -8.984091 -4.670308 -2.416956 9.516631 1.872776 0.704679 -9.126139 -0.358047 -2.195777 2.613729 6.211069 3.156867 0.000000 0.000000 0.000000 0.000000 0.000000 0.000000 0.619756 -0.700436 -0.147560 -0.621604 0.698796 0.155139 -0.451347 -3.533055 0.210120 7.962043 5.586245 -0.654129 0.000000 0.000000 0.000000 0.000000 0.000000 0.000000 2.645432 -0.275855 -24.442174 -3.771416 -2.016556 0.014813 2.325278 1.549464 -2.618883 0.000000 0.000000 0.000000 -0.161603 -0.599957 -24.403670 0.407291 0.726776 -0.046171 0.545556 0.256271 -2.528150 0.000000 0.000000 0.000000
-56.331094 71.457292 256.326028 -0.560561 -0.120556 24.424094 0.560244 -0.122019 -24.424088 -0.000000 0.000000 0.000000 1.678394 -1.538824 -0.379371 0.000000 0.000000 0.000000 -9.543986 -4.948902 -2.599654 11.897929 2.432803 0.932669 -10.433353 0.435498 -2.159497 2.036600 5.530432 3.031096 0.000000 0.000000 0.000000 0.000000 0.000000 0.000000 0.720906 -0.766266 -0.160062 -0.723108 0.764189 0.169705 0.142679 -3.486153 0.393471 9.341372 5.667474 -0.866474 0.000000 0.000000 0.000000 0.000000 0.000000 0.000000 2.941799 -0.230250 -24.439512 -4.209075 -2.445110 0.030254 2.562275 1.814873 -2.631628 0.000000 0.000000 0.000000 -0.214454 -0.663521 -24.379665 0.482155 0.812951 -0.053154 0.541586 0.254574 -2.509986 0.000000 0.000000 0.000000
-56.296681 71.432254 256.297536 -0.602679 -0.126160 24.358469 0.601064 -0.133644 -24.358432 -0.000000 0.000000 0.000000 1.867027 -1.678495 -0.424784 0.000000 0.000000 0.000000 -10.486524 -5.458326 -3.012073 13.827102 2.936602 1.130273 -11.326180 1.418402 -2.053919 1.677811 4.448571 2.775536 0.000000 0.000000 0.000000 0.000000 0.000000 0.000000 0.814588 -0.795091 -0.164383 -0.816944 0.792670 0.175686 0.360716 -3.306347 0.444117 10.744353 5.821084 -0.982071 0.000000 0.000000 0.000000 0.000000 0.000000 0.000000 2.991246 -0.289705 -24.362473 -4.314487 -2.439017 0.020358 2.678152 1.863492 -2.804064 0.000000 0.000000 0.000000 -0.269231 -0.723230 -24.309443 1.288917 1.461341 -0.123505 -0.159834 -0.298592 -2.622181 0.000000 0.000000 0.000000
-56.256318 71.405798 256.274127 -0.623279 -0.131965 24.258937 0.622460 -0.135771 -24.258917 -0.000000 0.000000 0.000000 2.027342 -1.753231 -0.470092 0.000000 0.000000 0.000000 -11.778604 -6.098755 -3.491510 15.531274 3.377009 1.202895 -11.920304 2.172559 -1.926786 0.338275 4.588016 2.766845 0.000000 0.000000 0.000000 0.000000 0.000000 0.000000 0.860729 -0.817952 -0.168416 -0.863217 0.815326 0.180702 0.363714 -2.502897 0.362890 10.834334 5.420215 -0.836445 0.000000 0.000000 0.000000 0.000000 0.000000 0.000000 3.299140 -0.398239 -24.242522 -4.967061 -2.485599 -0.022000 3.072443 1.909138 -3.010792 0.000000 0.000000 0.000000 -0.331722 -0.755403 -24.206028 1.581707 1.648867 -0.150495 -0.340267 -0.411769 -2.813221 0.000000 0.000000 0.000000
